<svg xmlns="http://www.w3.org/2000/svg" version="1.1" xmlns:xlink="http://www.w3.org/1999/xlink" xmlns:svgjs="http://svgjs.dev/svgjs" width="256" height="256"><svg xmlns="http://www.w3.org/2000/svg" width="256" height="256" viewBox="0 0 100 100"><rect width="100" height="100" rx="50" fill="#fdedb9"></rect><path fill="#464132" d="M86.40 48.83Q86.40 51.95 86.01 55.33L86.01 55.33L35.70 55.33Q36.22 62.09 40.06 65.66Q43.89 69.24 49.48 69.24L49.48 69.24Q57.80 69.24 61.05 62.22L61.05 62.22L84.71 62.22Q82.89 69.37 78.15 75.09Q73.40 80.81 66.25 84.06Q59.10 87.31 50.26 87.31L50.26 87.31Q39.60 87.31 31.28 82.76Q22.96 78.21 18.28 69.76Q13.60 61.31 13.60 50.00L13.60 50.00Q13.60 38.69 18.22 30.24Q22.83 21.79 31.15 17.24Q39.47 12.69 50.26 12.69L50.26 12.69Q60.79 12.69 68.98 17.11Q77.17 21.53 81.78 29.72Q86.40 37.91 86.40 48.83L86.40 48.83ZM35.83 42.98L63.65 42.98Q63.65 37.26 59.75 33.88Q55.85 30.50 50 30.50L50 30.50Q44.41 30.50 40.58 33.75Q36.74 37.00 35.83 42.98L35.83 42.98Z"></path></svg><style>@media (prefers-color-scheme: light) { :root { filter: none; } }
@media (prefers-color-scheme: dark) { :root { filter: none; } }
</style></svg>